<?xml version="1.0" standalone="no"?>
<!DOCTYPE svg PUBLIC "-//W3C//DTD SVG 20010904//EN"
 "http://www.w3.org/TR/2001/REC-SVG-20010904/DTD/svg10.dtd">
<svg version="1.0" xmlns="http://www.w3.org/2000/svg"
 width="700.000000pt" height="700.000000pt" viewBox="0 0 700.000000 700.000000"
 preserveAspectRatio="xMidYMid meet">
<metadata>
Created by potrace 1.11, written by Peter Selinger 2001-2013
</metadata>
<g transform="translate(0.000000,700.000000) scale(0.100000,-0.100000)"
fill="#000000" stroke="none">
<path d="M1436 5785 c-8 -9 -18 -32 -21 -53 -4 -20 -10 -49 -15 -63 -5 -16 -3
-37 5 -56 13 -30 15 -31 97 -38 45 -3 382 -5 748 -3 l665 3 60 25 60 26 -2 57
c-1 31 -8 69 -15 84 l-13 28 -777 3 c-688 2 -778 0 -792 -13z"/>
<path d="M1025 5604 c-33 -6 -71 -17 -85 -22 -59 -24 -102 -94 -115 -187 -7
-57 -15 -75 -36 -79 -8 -2 -22 -6 -31 -11 -10 -4 -25 -5 -33 -1 -8 3 -15 0
-15 -5 0 -6 -9 -9 -20 -6 -13 3 -18 1 -13 -6 4 -6 -2 -8 -16 -4 -13 3 -21 3
-18 0 3 -3 -9 -18 -27 -34 -19 -16 -39 -42 -46 -59 -7 -16 -16 -30 -20 -30 -4
0 -5 -11 -2 -25 2 -14 0 -25 -4 -25 -10 0 -9 -61 1 -125 3 -22 6 -45 7 -52 1
-7 5 -10 10 -7 4 3 8 -2 8 -10 0 -9 6 -16 13 -16 7 0 17 -10 22 -22 6 -13 17
-22 24 -20 7 1 28 -7 47 -19 20 -12 34 -16 34 -9 0 6 5 8 12 4 18 -12 58 -11
67 1 24 30 101 222 106 262 3 26 10 52 15 57 6 6 10 18 10 29 0 10 4 16 9 13
5 -3 19 3 32 13 13 10 42 21 64 23 22 3 92 22 155 42 63 21 133 43 155 50 l40
13 -4 89 c-3 89 -11 114 -37 114 -8 0 -14 4 -14 9 0 8 -37 24 -52 22 -5 -1 -8
4 -8 10 0 5 -4 7 -10 4 -5 -3 -10 0 -10 7 0 9 -3 9 -10 -2 -6 -9 -10 -11 -10
-3 0 7 -6 10 -14 7 -8 -3 -17 0 -21 6 -5 8 -11 7 -23 -2 -13 -11 -14 -11 -8 1
6 9 5 12 -5 9 -8 -3 -25 -2 -39 2 -14 4 -52 1 -85 -6z"/>
<path d="M3293 5589 c-18 -12 -33 -26 -33 -32 0 -7 -4 -7 -9 2 -7 10 -11 5
-16 -18 -3 -17 -13 -35 -21 -39 -10 -6 -16 -27 -18 -63 -2 -30 -6 -62 -11 -73
-5 -11 -4 -21 3 -25 17 -11 63 -108 83 -179 23 -82 24 -137 3 -188 -38 -91
-106 -138 -233 -161 -47 -8 -93 -19 -103 -24 -10 -5 -18 -7 -18 -4 0 8 -77
-33 -84 -44 -4 -5 -1 -32 5 -60 6 -28 9 -52 7 -53 -1 -2 7 -17 19 -34 12 -17
20 -34 16 -37 -3 -4 6 -12 21 -18 14 -7 26 -16 26 -22 0 -5 6 -7 14 -4 12 5
15 -24 17 -181 3 -267 5 -251 -41 -292 -64 -56 -93 -152 -90 -290 1 -47 3
-114 3 -150 l2 -65 49 -24 c28 -13 91 -30 140 -38 98 -15 127 -24 251 -73 92
-37 112 -53 150 -121 l27 -50 -25 -33 c-29 -37 -264 -197 -317 -215 -57 -19
-80 -45 -85 -93 -12 -107 -17 -128 -31 -128 -16 0 -19 -17 -3 -22 6 -2 -25 -4
-68 -5 -90 -3 -229 -13 -258 -20 -11 -3 -231 -7 -490 -9 -586 -5 -712 -9 -729
-23 -7 -6 -15 -9 -18 -6 -3 3 -11 -2 -19 -12 -12 -15 -12 -16 1 -8 13 8 13 6
2 -8 -15 -17 -10 -74 11 -134 l10 -31 121 -4 c158 -4 1425 0 1451 5 16 3 23
17 33 68 23 116 31 137 50 135 16 -3 17 -25 20 -259 l2 -257 -22 0 c-13 0 -43
-6 -68 -14 l-45 -13 -8 -68 c-4 -38 -6 -193 -5 -344 l3 -276 603 -3 c375 -1
610 2 621 8 11 6 21 27 26 57 4 26 11 259 14 518 l6 470 435 0 435 0 6 -480
c4 -264 10 -499 14 -522 5 -30 13 -43 29 -47 11 -3 290 -6 619 -6 l597 0 0
350 0 349 -29 15 c-16 9 -47 18 -70 22 l-41 7 2 900 3 901 40 8 c22 5 52 13
68 19 l27 11 0 354 0 354 -574 0 c-315 0 -594 -3 -619 -6 -44 -6 -45 -8 -52
-48 -3 -22 -8 -258 -11 -523 l-6 -483 -439 0 -439 0 0 398 c0 398 -11 627 -31
647 -6 6 -114 11 -294 13 -258 3 -285 5 -286 20 -1 9 -2 157 -3 327 -2 171 -6
323 -10 339 -12 49 -50 119 -71 130 -11 6 -22 14 -25 18 -3 4 -17 10 -30 12
-14 2 -25 5 -25 6 0 3 -42 11 -85 15 -34 3 -53 -1 -77 -16z"/>
<path d="M2188 5105 c-2 -2 -55 -6 -118 -10 -139 -9 -143 -10 -179 -31 -24
-14 -31 -28 -42 -78 -7 -34 -12 -64 -11 -67 3 -14 -94 -52 -131 -52 -29 0 -71
-15 -146 -52 -58 -29 -117 -56 -131 -60 -49 -14 -81 -59 -95 -131 -3 -16 -14
-63 -23 -104 -16 -68 -17 -85 -4 -174 7 -54 21 -122 31 -150 17 -49 19 -51 52
-48 19 2 57 14 86 27 68 31 99 78 121 186 18 93 44 129 91 129 15 0 51 12 79
26 60 30 94 78 112 159 6 28 16 58 21 69 7 13 7 16 0 11 -17 -10 -13 -1 10 26
22 25 31 26 174 17 39 -3 77 -7 85 -11 14 -5 89 -3 100 3 3 2 19 4 35 5 17 2
59 6 95 10 36 4 75 8 87 9 12 0 28 8 35 16 11 12 10 12 -7 0 -11 -7 -8 -1 8
14 24 24 29 33 26 52 0 4 4 10 9 13 5 3 12 35 14 71 l5 65 -36 17 c-20 9 -67
19 -106 22 -38 4 -90 9 -115 11 -104 11 -129 13 -132 10z"/>
<path d="M465 4693 c-11 -2 -38 -11 -61 -19 l-41 -15 -7 -76 c-8 -98 -8 -783
0 -889 l7 -82 57 -17 c31 -9 65 -15 76 -13 23 4 50 59 59 119 4 24 8 46 11 50
2 4 4 179 4 390 1 374 -5 463 -32 512 -7 12 -11 26 -10 30 1 5 -2 6 -7 3 -5
-4 -12 -2 -16 4 -3 5 -9 9 -13 9 -4 -1 -16 -3 -27 -6z"/>
<path d="M1330 4039 c-33 -138 -32 -234 4 -337 16 -49 35 -86 45 -89 22 -8 47
-35 55 -59 3 -11 46 -40 108 -71 l103 -52 110 -2 c72 -1 110 2 113 9 2 8 7 8
17 -1 9 -8 10 -16 3 -24 -8 -9 -6 -13 4 -13 7 0 14 -9 14 -20 0 -11 -4 -20 -9
-20 -5 0 -6 -26 -3 -57 3 -32 5 -63 6 -70 1 -38 250 -58 498 -41 94 7 163 27
162 46 -2 40 -22 157 -27 161 -5 3 -13 15 -19 26 -6 11 -22 21 -35 23 -13 1
-42 7 -64 14 -45 12 -111 18 -200 18 -109 -1 -135 -4 -122 -12 8 -5 6 -8 -8
-10 -11 -1 -36 -3 -55 -5 -19 -2 -47 -3 -62 -4 -15 0 -30 -4 -33 -9 -3 -6 2
-7 12 -4 17 5 17 5 0 -6 -22 -14 -51 12 -44 40 3 11 1 18 -4 14 -5 -3 -9 17
-9 44 0 139 -72 234 -194 256 -57 11 -86 33 -86 67 0 44 -21 130 -41 171 -31
60 -77 87 -180 104 l-37 6 -22 -93z"/>
<path d="M767 3423 c-4 -3 -23 -7 -44 -9 -21 -1 -54 -10 -74 -18 -20 -8 -39
-12 -43 -9 -3 4 -6 -1 -6 -10 0 -9 -6 -17 -14 -17 -7 0 -22 -28 -35 -66 -19
-60 -20 -72 -10 -128 7 -33 20 -78 30 -98 23 -44 85 -83 149 -93 47 -6 90 -23
102 -40 4 -5 4 -22 1 -37 -4 -18 -1 -28 6 -28 8 0 10 -8 6 -21 -10 -30 21
-104 56 -134 30 -25 56 -34 44 -15 -3 6 1 7 9 4 9 -3 14 -10 11 -14 -7 -11 43
-22 67 -14 14 4 18 3 13 -5 -7 -13 87 -7 129 8 11 4 28 7 36 6 8 -1 21 3 27 8
7 5 13 6 13 2 0 -3 12 3 26 14 15 12 33 21 40 21 8 0 14 8 14 18 0 10 6 27 14
38 15 20 40 134 31 142 -11 12 -294 98 -366 112 -81 16 -102 42 -115 150 -6
43 -84 223 -102 234 -5 3 -12 3 -15 -1z m133 -688 c13 -14 21 -25 18 -25 -2 0
-15 11 -28 25 -13 14 -21 25 -18 25 2 0 15 -11 28 -25z"/>
</g>
</svg>
